<?xml version="1.0" encoding="utf-8"?>
<!-- Generator: Adobe Illustrator 16.0.3, SVG Export Plug-In . SVG Version: 6.00 Build 0)  -->
<!DOCTYPE svg PUBLIC "-//W3C//DTD SVG 1.1//EN" "http://www.w3.org/Graphics/SVG/1.1/DTD/svg11.dtd">
<svg version="1.1" id="Layer_1" xmlns="http://www.w3.org/2000/svg" xmlns:xlink="http://www.w3.org/1999/xlink" x="0px" y="0px"
	 width="265.256px" height="311.653px" viewBox="0 0 265.256 311.653" enable-background="new 0 0 265.256 311.653"
	 xml:space="preserve">
<polygon fill="#FFFFFF" points="51.78,258.509 41.455,277.987 37.587,277.987 35.639,263.712 27.847,277.987 23.979,277.987 
	21.419,258.509 25.009,258.509 26.929,273.312 34.917,258.509 38.283,258.509 40.203,273.452 48.19,258.509 "/>
<path fill="#FFFFFF" d="M63.99,271.81l3.478,6.178h-3.84l-3.2-5.704h-0.027h-4.815l-1.113,5.704h-3.646l3.896-19.479h7.57
	c4.702,0,7.402,2.171,7.402,5.872C69.695,268.164,67.58,270.808,63.99,271.81 M66.049,264.714c0-2.115-1.502-3.145-4.146-3.145
	h-4.146l-1.559,7.736h4.313C64.018,269.306,66.049,267.719,66.049,264.714"/>
<path fill="#FFFFFF" d="M71.583,269.945c0-6.595,4.759-11.716,11.938-11.716c5.872,0,9.323,3.396,9.323,8.321
	c0,6.595-4.759,11.715-11.939,11.715C75.033,278.266,71.583,274.87,71.583,269.945 M89.198,266.772c0-3.199-2.115-5.371-6.011-5.371
	c-4.898,0-7.959,3.812-7.959,8.322c0,3.199,2.087,5.37,5.983,5.37C86.109,275.094,89.198,271.28,89.198,266.772"/>
<path fill="#FFFFFF" d="M95.009,269.945c0-6.595,4.759-11.716,11.994-11.716c3.339,0,6.039,1.141,7.402,3.256l-2.616,2.198
	c-1.057-1.476-2.727-2.281-5.037-2.281c-4.981,0-8.097,3.757-8.097,8.321c0,3.227,2.114,5.369,6.094,5.369
	c2.171,0,4.063-0.723,5.537-2.252l2.116,2.281c-1.893,2.17-4.704,3.144-7.932,3.144C98.543,278.266,95.009,274.87,95.009,269.945"/>
<polygon fill="#FFFFFF" points="129.512,274.927 128.9,277.987 115.097,277.987 116.6,270.502 115.013,271.559 113.622,269.472 
	117.296,267.052 118.993,258.509 122.611,258.509 121.442,264.323 124.642,262.209 126.033,264.269 120.774,267.747 
	119.327,274.927 "/>
<path fill="#FFFFFF" d="M145.62,273.479h-9.795l-2.81,4.508h-3.869l12.662-19.479h3.59l4.843,19.479h-3.591L145.62,273.479z
	 M144.953,270.641l-1.976-8.569l-5.371,8.569H144.953z"/>
<polygon fill="#FFFFFF" points="184.075,258.509 173.75,277.987 169.883,277.987 167.934,263.712 160.143,277.987 156.274,277.987 
	153.714,258.509 157.304,258.509 159.224,273.312 167.211,258.509 170.579,258.509 172.499,273.452 180.485,258.509 "/>
<path fill="#FFFFFF" d="M181.954,275.983l1.531-2.838c1.613,1.309,3.979,2.115,6.344,2.115c2.839,0,4.675-1.03,4.675-2.756
	c0-3.617-9.823-1.726-9.823-7.986c0-3.84,3.451-6.289,8.488-6.289c2.504,0,4.869,0.585,6.512,1.643l-1.42,2.865
	c-1.447-0.974-3.339-1.502-5.287-1.502c-2.949,0-4.703,1.196-4.703,2.895c0,3.646,9.824,1.863,9.824,7.82
	c0,3.866-3.479,6.315-8.6,6.315C186.434,278.266,183.485,277.292,181.954,275.983"/>
<polygon fill="#FFFFFF" points="211.559,267.579 218.488,277.987 214.454,277.987 208.915,269.778 205.214,273.007 204.211,277.987 
	200.622,277.987 204.518,258.509 208.108,258.509 206.132,268.359 217.459,258.509 222.022,258.509 211.616,267.552 "/>
<polygon fill="#FFFFFF" points="224.801,258.509 228.418,258.509 224.522,277.987 220.905,277.987 "/>
<path fill="#FFFFFF" d="M19.446,305.196l3.479,6.178h-3.84l-3.201-5.705h-0.027h-4.815l-1.113,5.705H6.284l3.895-19.479h7.57
	c4.703,0,7.402,2.171,7.402,5.872C25.151,301.551,23.036,304.194,19.446,305.196 M21.506,298.101c0-2.115-1.503-3.145-4.147-3.145
	h-4.146l-1.559,7.736h4.314C19.474,302.692,21.506,301.105,21.506,298.101"/>
<path fill="#FFFFFF" d="M27.04,303.332c0-6.595,4.758-11.716,11.938-11.716c5.871,0,9.323,3.396,9.323,8.32
	c0,6.596-4.759,11.717-11.939,11.717C30.49,311.653,27.04,308.258,27.04,303.332 M44.655,300.159c0-3.2-2.115-5.371-6.011-5.371
	c-4.898,0-7.959,3.813-7.959,8.322c0,3.198,2.087,5.369,5.983,5.369C41.566,308.479,44.655,304.668,44.655,300.159"/>
<polygon fill="#FFFFFF" points="81.801,291.896 71.477,311.374 67.609,311.374 65.66,297.099 57.869,311.374 54,311.374 
	51.44,291.896 55.03,291.896 56.95,306.699 64.937,291.896 68.304,291.896 70.224,306.838 78.211,291.896 "/>
<polygon fill="#FFFFFF" points="87.722,294.928 86.721,299.993 96.154,299.993 95.57,302.97 86.108,302.97 85.051,308.342 
	96.071,308.342 95.458,311.375 80.848,311.375 84.744,291.896 98.965,291.896 98.352,294.928 "/>
<path fill="#FFFFFF" d="M112.651,305.196l3.479,6.178h-3.84l-3.201-5.705h-0.027h-4.815l-1.113,5.705h-3.645l3.895-19.479h7.57
	c4.703,0,7.402,2.171,7.402,5.872C118.356,301.551,116.241,304.194,112.651,305.196 M114.711,298.101
	c0-2.115-1.503-3.145-4.146-3.145h-4.147l-1.559,7.736h4.314C112.679,302.692,114.711,301.105,114.711,298.101"/>
<polygon fill="#FFFFFF" points="152.717,291.896 148.822,311.374 145.4,311.374 147.932,298.603 139.612,309.147 137.997,309.147 
	133.545,298.351 130.957,311.374 127.506,311.374 131.402,291.896 134.352,291.896 139.5,304.863 149.6,291.896 "/>
<polygon fill="#FFFFFF" points="157.971,291.896 161.59,291.896 157.693,311.374 154.076,311.374 "/>
<polygon fill="#FFFFFF" points="169.825,294.928 168.823,299.993 178.256,299.993 177.671,302.97 168.21,302.97 167.153,308.342 
	178.172,308.342 177.56,311.375 162.95,311.375 166.846,291.896 181.067,291.896 180.454,294.928 "/>
<path fill="#FFFFFF" d="M179.2,308.759l2.447-2.338c0.752,1.393,1.977,2.171,3.618,2.171c1.92,0,3.117-1.002,3.59-3.396l2.06-10.269
	h-6.957l0.613-3.032h10.489l-2.614,13.106c-0.976,4.897-3.34,6.651-7.236,6.651C182.372,311.653,180.284,310.595,179.2,308.759"/>
<path fill="#FFFFFF" d="M195.085,309.37l1.53-2.838c1.615,1.309,3.979,2.115,6.345,2.115c2.839,0,4.676-1.03,4.676-2.756
	c0-3.617-9.823-1.726-9.823-7.986c0-3.84,3.45-6.289,8.487-6.289c2.504,0,4.87,0.585,6.513,1.643l-1.42,2.865
	c-1.447-0.974-3.34-1.502-5.287-1.502c-2.951,0-4.703,1.196-4.703,2.895c0,3.646,9.824,1.863,9.824,7.82
	c0,3.866-3.479,6.315-8.6,6.315C199.565,311.652,196.616,310.679,195.085,309.37"/>
<polygon fill="#FFFFFF" points="224.691,300.966 231.62,311.374 227.584,311.374 222.047,303.165 218.346,306.394 217.344,311.374 
	213.754,311.374 217.651,291.896 221.241,291.896 219.264,301.747 230.591,291.896 235.154,291.896 224.747,300.938 "/>
<polygon fill="#FFFFFF" points="237.932,291.896 241.55,291.896 237.654,311.374 234.036,311.374 "/>
<polygon fill="#FFFFFF" points="107.271,181.831 76.66,239.745 62.347,239.745 57.3,200.778 36.369,239.745 21.973,239.745 
	14.608,181.831 27.847,181.831 32.977,222.536 54.735,181.831 67.146,181.831 72.109,222.868 93.952,181.831 "/>
<path fill="#FFFFFF" d="M144.342,221.875l10.092,17.871h-14.147l-9.1-16.216H119.77l-3.227,16.216h-13.486l11.583-57.914h23.58
	c14.396,0,22.668,6.619,22.668,17.953C160.887,210.706,154.682,218.649,144.342,221.875 M147.32,201.026
	c0-5.625-3.972-8.273-10.838-8.273h-10.59l-4.054,20.105h11.417C142.108,212.858,147.32,208.721,147.32,201.026"/>
<polygon fill="#FFFFFF" points="240.646,181.831 229.146,239.745 216.571,239.745 223.355,205.329 201.265,233.624 195.308,233.624 
	183.395,204.997 176.445,239.745 163.87,239.745 175.452,181.831 186.374,181.831 200.852,217.903 229.146,181.831 "/>
<polygon fill="#F9354C" points="86.208,124.878 53.418,92.088 86.208,59.301 100.011,59.301 67.223,92.088 100.012,124.878 "/>
<polygon fill="#F9354C" points="112.094,124.878 79.304,92.088 112.094,59.301 125.896,59.301 93.109,92.088 125.898,124.878 "/>
<polygon fill="#F9354C" points="137.98,124.878 105.192,92.088 137.98,59.301 151.784,59.301 118.997,92.088 151.784,124.878 "/>
<path fill="#FFFFFF" d="M210.124,36.957c-8.123,0-15.836,1.779-22.787,4.948l-10.198-18.031l6.601-18.133h9.249V0h-33.991v5.741
	h14.354l-4.987,13.699h-81.85l4.857-13.699h17.142V0H74.522v5.741h6.491L69.295,38.793c-4.599-1.221-9.343-1.836-14.163-1.836
	C24.732,36.957,0,61.688,0,92.088c0,30.401,24.732,55.135,55.132,55.135c6.892,0,13.616-1.257,19.987-3.735l-3.541-9.098
	c-5.237,2.038-10.77,3.071-16.446,3.071c-25.018,0-45.371-20.354-45.371-45.373c0-25.018,20.353-45.371,45.371-45.371
	c5.338,0,10.558,0.915,15.522,2.725l4.626,1.684L83.054,29.2h85.882l9.912,17.52c-14.4,9.956-23.859,26.575-23.859,45.368
	c0,30.401,24.732,55.135,55.135,55.135c30.399,0,55.133-24.734,55.133-55.135C265.256,61.688,240.523,36.957,210.124,36.957
	 M210.124,137.461c-25.021,0-45.375-20.354-45.375-45.373c0-15.154,7.478-28.588,18.929-36.832l22.198,39.235l8.496-4.804
	l-22.209-39.256c5.51-2.386,11.582-3.714,17.961-3.714c25.017,0,45.37,20.353,45.37,45.371
	C255.494,117.107,235.14,137.461,210.124,137.461"/>
<path fill="#FFFFFF" d="M210.124,53.558v5.743c18.078,0,32.789,14.708,32.789,32.787c0,18.081-14.711,32.79-32.789,32.79
	c-18.08,0-32.791-14.709-32.791-32.79h-5.742c0,21.248,17.287,38.533,38.533,38.533c21.245,0,38.529-17.285,38.529-38.533
	C248.653,70.844,231.369,53.558,210.124,53.558"/>
<path fill="#FFFFFF" d="M55.133,59.301v-5.743c-21.246,0-38.532,17.286-38.532,38.531c0,21.246,17.286,38.532,38.532,38.532v-5.743
	c-18.079,0-32.79-14.709-32.79-32.789S37.054,59.301,55.133,59.301"/>
</svg>
